<svg xmlns="http://www.w3.org/2000/svg" xmlns:svg="http://www.w3.org/2000/svg" id="svg4295" width="256" height="256" version="1.1" viewBox="0 0 72.249 72.249"><metadata id="metadata4325"/><g id="g6472"><path id="path4184" fill="none" fill-rule="evenodd" stroke="#000" stroke-dasharray="none" stroke-linecap="butt" stroke-linejoin="miter" stroke-miterlimit="4" stroke-opacity="1" stroke-width="2.258" d="M 18.062223,18.062223 36.124447,36.124447"/><path id="path4192" fill="#00ff7f" fill-rule="evenodd" stroke="#000" stroke-dasharray="none" stroke-linecap="round" stroke-linejoin="miter" stroke-miterlimit="4" stroke-opacity="1" stroke-width="2.258" d="M 16.086666,16.086666 6.1086041,13.292808 13.292809,6.1086041 16.086666,16.086666"/><g id="text6016" fill="#000" fill-opacity="1" stroke="none" stroke-linecap="butt" stroke-linejoin="miter" stroke-opacity="1" stroke-width="1" font-family="sans-serif" font-size="22.578" font-stretch="normal" font-style="normal" font-variant="normal" font-weight="normal" letter-spacing="0" text-anchor="start" word-spacing="0" writing-mode="lr-tb" style="line-height:125%;-inkscape-font-specification:'sans-serif, Normal';text-align:start"><path id="path6470" d="m 39.420143,16.940732 -0.110243,0 q -0.463021,-0.110243 -0.903993,-0.15434 -0.429948,-0.05512 -1.02526,-0.05512 -0.959115,0 -1.852084,0.429948 -0.892969,0.418924 -1.719792,1.091407 l 0,8.742275 -2.072569,0 0,-12.314151 2.072569,0 0,1.819011 q 1.234723,-0.992188 2.171789,-1.400087 0.94809,-0.418924 1.929253,-0.418924 0.540191,0 0.782726,0.03307 0.242535,0.02205 0.727604,0.09922 l 0,2.127691 z"/></g><circle id="path5264" cx="36.124" cy="36.124" r="4.516" fill="#00ff7f" fill-opacity="1" fill-rule="nonzero" stroke="#000" stroke-dasharray="none" stroke-dashoffset="14.16" stroke-linecap="round" stroke-linejoin="miter" stroke-miterlimit="4" stroke-opacity="1" stroke-width="2.258" opacity="1"/><circle id="circle5270" cx="36.124" cy="36.124" r="25.964" fill="none" fill-opacity="1" fill-rule="nonzero" stroke="#000" stroke-dasharray="none" stroke-dashoffset="3.996" stroke-linecap="round" stroke-linejoin="miter" stroke-miterlimit="4" stroke-opacity="1" stroke-width="2.258" opacity="1"/></g></svg>