<svg xmlns="http://www.w3.org/2000/svg" xmlns:svg="http://www.w3.org/2000/svg" id="svg4295" width="256" height="256" version="1.1" viewBox="0 0 72.249 72.249"><metadata id="metadata4325"/><g id="g5903"><circle id="circle6020" cx="36.124" cy="36.124" r="25.964" fill="none" fill-opacity="1" fill-rule="nonzero" stroke="#000" stroke-dasharray="none" stroke-dashoffset="3.996" stroke-linecap="round" stroke-linejoin="miter" stroke-miterlimit="4" stroke-opacity="1" stroke-width="2.258" opacity="1"/><path id="path6022" fill="none" fill-rule="evenodd" stroke="#000" stroke-dasharray="none" stroke-linecap="butt" stroke-linejoin="miter" stroke-miterlimit="4" stroke-opacity="1" stroke-width="2.258" d="m 24.835559,24.835557 22.577797,22.57778"/><path id="path6024" fill="#00ff7f" fill-rule="evenodd" stroke="#000" stroke-dasharray="none" stroke-linecap="round" stroke-linejoin="miter" stroke-miterlimit="4" stroke-opacity="1" stroke-width="2.258" d="m 52.775586,52.77556 -9.97807,-2.793858 7.18421,-7.184205 2.79386,9.978063"/><path id="path6026" fill="#00ff7f" fill-opacity="1" fill-rule="evenodd" stroke="#000" stroke-dasharray="none" stroke-linecap="round" stroke-linejoin="miter" stroke-miterlimit="4" stroke-opacity="1" stroke-width="2.258" d="m 19.473336,19.473334 2.793858,9.978063 7.184202,-7.184206 -9.97806,-2.793857"/><g id="text6028" fill="#000" fill-opacity="1" stroke="none" stroke-linecap="butt" stroke-linejoin="miter" stroke-opacity="1" stroke-width="1" font-family="sans-serif" font-size="22.578" font-stretch="normal" font-style="normal" font-variant="normal" font-weight="normal" letter-spacing="0" text-anchor="start" word-spacing="0" writing-mode="lr-tb" style="line-height:125%;-inkscape-font-specification:'sans-serif, Normal';text-align:start"><path id="path5901" d="m 49.563003,36.124447 -2.07257,0 0,-1.289844 q -0.892969,0.771701 -1.863108,1.201649 -0.970139,0.429948 -2.105642,0.429948 -2.204862,0 -3.50573,-1.697743 -1.289844,-1.697743 -1.289844,-4.707379 0,-1.565451 0.440973,-2.789149 0.451996,-1.223698 1.212673,-2.083594 0.749653,-0.837848 1.741841,-1.27882 1.003212,-0.440972 2.072569,-0.440972 0.970139,0 1.719792,0.209462 0.749653,0.198437 1.576476,0.628385 l 0,-5.335764 2.07257,0 0,17.153821 z m -2.07257,-3.031684 0,-7.066581 q -0.837847,-0.374826 -1.499306,-0.518142 -0.661458,-0.143316 -1.444184,-0.143316 -1.74184,0 -2.711979,1.212673 -0.970139,1.212674 -0.970139,3.439584 0,2.193837 0.749653,3.340365 0.749653,1.135504 2.403299,1.135504 0.881944,0 1.785937,-0.385851 0.903993,-0.396875 1.686719,-1.014236 z"/></g></g></svg>