<svg xmlns="http://www.w3.org/2000/svg" xmlns:svg="http://www.w3.org/2000/svg" id="svg4295" width="256" height="256" version="1.1" viewBox="0 0 72.249 72.249"><metadata id="metadata4325"/><g id="g8940" transform="translate(0,6.773334)"><path id="circle6020" fill="none" fill-opacity="1" fill-rule="nonzero" stroke="#000" stroke-dasharray="none" stroke-dashoffset="3.996" stroke-linecap="butt" stroke-linejoin="miter" stroke-miterlimit="4" stroke-opacity="1" stroke-width="2.258" d="M 52.684117,16.933375 A 34.99556,16.933334 0 0 1 18.881002,4.3827104 34.99556,16.933334 0 0 1 35.186335,-14.664657 a 34.99556,16.933334 0 0 1 42.243378,2.691021" opacity="1" transform="matrix(0.70710678,0.70710678,-0.70710678,0.70710678,0,0)"/><circle id="circle5886" cx="-23.707" cy="48.542" r="5.644" fill="#00ff7f" fill-opacity="1" fill-rule="nonzero" stroke="#000" stroke-dasharray="none" stroke-dashoffset="8" stroke-linecap="square" stroke-linejoin="miter" stroke-miterlimit="4" stroke-opacity="1" stroke-width="2.258" opacity="1" transform="matrix(0,-1,1,0,0,0)"/><path id="path8922" fill="none" fill-rule="evenodd" stroke="#000" stroke-dasharray="none" stroke-linecap="butt" stroke-linejoin="miter" stroke-miterlimit="4" stroke-opacity="1" stroke-width="2.258" d="M 13.546668,11.28889 36.124447,36.124447"/><circle id="circle5888" cx="-36.124" cy="36.124" r="5.644" fill="#00ff7f" fill-opacity="1" fill-rule="nonzero" stroke="#000" stroke-dasharray="none" stroke-dashoffset="8" stroke-linecap="square" stroke-linejoin="miter" stroke-miterlimit="4" stroke-opacity="1" stroke-width="2.258" opacity="1" transform="matrix(0,-1,1,0,0,0)"/><circle id="circle8279" cx="-11.289" cy="13.547" r="5.644" fill="#00ff7f" fill-opacity="1" fill-rule="nonzero" stroke="#000" stroke-dasharray="none" stroke-dashoffset="8" stroke-linecap="square" stroke-linejoin="miter" stroke-miterlimit="4" stroke-opacity="1" stroke-width="2.258" opacity="1" transform="matrix(0,-1,1,0,0,0)"/></g></svg>